<svg xmlns="http://www.w3.org/2000/svg" xmlns:xlink="http://www.w3.org/1999/xlink" viewBox="0 0 8.82 7.46"  width="88.2px" height="74.6px"><defs><linearGradient id="linear-gradient" x1="23.67" y1="19.62" x2="24.28" y2="26.89" gradientTransform="translate(-18.85 27.67) rotate(-90)" gradientUnits="userSpaceOnUse"><stop offset="0" stop-color="#f3dd55"/><stop offset="0.1" stop-color="#e6b73c"/><stop offset="0.18" stop-color="#dc9728"/><stop offset="0.23" stop-color="#f3d150"/><stop offset="0.25" stop-color="#fce75f"/><stop offset="0.35" stop-color="#c2972b"/><stop offset="0.39" stop-color="#a97515"/><stop offset="0.66" stop-color="#f1db86"/><stop offset="0.71" stop-color="#ffef9c"/><stop offset="0.88" stop-color="#ebc143"/><stop offset="1" stop-color="#fdea6f"/></linearGradient><linearGradient id="linear-gradient-2" x1="4.56" y1="0.25" x2="3.56" y2="7.25" gradientUnits="userSpaceOnUse"><stop offset="0.46" stop-color="#e6cd76"/><stop offset="0.63" stop-color="#c8a145"/><stop offset="0.67" stop-color="#d7b75d"/><stop offset="0.75" stop-color="#f3de88"/><stop offset="0.78" stop-color="#fded99"/><stop offset="1" stop-color="#b07f20"/></linearGradient><linearGradient id="Chrome_05" x1="24.3" y1="24.01" x2="26.03" y2="22.39" gradientTransform="translate(-18.85 27.67) rotate(-90)" gradientUnits="userSpaceOnUse"><stop offset="0" stop-color="#bfc1c5"/><stop offset="0.02" stop-color="#b7babd"/><stop offset="0.06" stop-color="#a3a5a8"/><stop offset="0.08" stop-color="#909395"/><stop offset="0.08" stop-color="#a8abac"/><stop offset="0.09" stop-color="#c3c5c6"/><stop offset="0.1" stop-color="#d9dadb"/><stop offset="0.1" stop-color="#eaebeb"/><stop offset="0.11" stop-color="#f5f6f7"/><stop offset="0.13" stop-color="#fcfdfd"/><stop offset="0.16" stop-color="#feffff"/><stop offset="0.18" stop-color="#f1f2f3"/><stop offset="0.2" stop-color="#cfd1d3"/><stop offset="0.23" stop-color="#999ba0"/><stop offset="0.25" stop-color="#6a6c74"/><stop offset="0.25" stop-color="#6b6d75"/><stop offset="0.26" stop-color="#7b7e84"/><stop offset="0.27" stop-color="#87898f"/><stop offset="0.29" stop-color="#8d9095"/><stop offset="0.35" stop-color="#8f9297"/><stop offset="0.36" stop-color="#8b8e93"/><stop offset="0.38" stop-color="#808388"/><stop offset="0.4" stop-color="#6e7176"/><stop offset="0.41" stop-color="#54575c"/><stop offset="0.42" stop-color="#4d5055"/><stop offset="0.44" stop-color="#696b70"/><stop offset="0.46" stop-color="#848589"/><stop offset="0.49" stop-color="#9a9b9e"/><stop offset="0.52" stop-color="#ababae"/><stop offset="0.55" stop-color="#b6b7ba"/><stop offset="0.61" stop-color="#bdbdc0"/><stop offset="0.75" stop-color="#bfbfc2"/><stop offset="0.8" stop-color="#bdbdc0"/><stop offset="0.82" stop-color="#b6b7b9"/><stop offset="0.83" stop-color="#ababae"/><stop offset="0.85" stop-color="#9a9b9d"/><stop offset="0.85" stop-color="#858587"/><stop offset="0.86" stop-color="#6a6b6b"/><stop offset="0.87" stop-color="#4a4b4b"/><stop offset="0.88" stop-color="#262727"/><stop offset="0.88" stop-color="#1a1b1a"/><stop offset="0.93" stop-color="#1a1b1a"/><stop offset="0.93" stop-color="#3c3d3d"/><stop offset="0.94" stop-color="#5d5f60"/><stop offset="0.95" stop-color="#797c7d"/><stop offset="0.96" stop-color="#8f9293"/><stop offset="0.97" stop-color="#9ea1a3"/><stop offset="0.98" stop-color="#a7aaac"/><stop offset="1" stop-color="#aaadaf"/></linearGradient><linearGradient id="linear-gradient-3" x1="46.25" y1="15.26" x2="47.8" y2="13.81" gradientTransform="translate(-42.59 -12.03)" gradientUnits="userSpaceOnUse"><stop offset="0" stop-color="#bfc1c5"/><stop offset="0.05" stop-color="#b1b3b7"/><stop offset="0.18" stop-color="#909395"/><stop offset="0.24" stop-color="#979a9b"/><stop offset="0.33" stop-color="#abacad"/><stop offset="0.41" stop-color="#c2c2c2"/><stop offset="0.44" stop-color="#b7b7b7"/><stop offset="0.57" stop-color="#8f8f8f"/><stop offset="0.63" stop-color="gray"/><stop offset="0.68" stop-color="#8b8b8b"/><stop offset="0.76" stop-color="#a7a7a8"/><stop offset="0.83" stop-color="#bfbfc2"/><stop offset="0.87" stop-color="#bdbdc0"/><stop offset="0.88" stop-color="#b6b7b9"/><stop offset="0.89" stop-color="#ababae"/><stop offset="0.9" stop-color="#9a9b9d"/><stop offset="0.91" stop-color="#858587"/><stop offset="0.91" stop-color="#6a6b6b"/><stop offset="0.92" stop-color="#4a4b4b"/><stop offset="0.93" stop-color="#262727"/><stop offset="0.93" stop-color="#1a1b1a"/><stop offset="0.93" stop-color="#3c3d3d"/><stop offset="0.94" stop-color="#5d5f60"/><stop offset="0.95" stop-color="#797c7d"/><stop offset="0.96" stop-color="#8f9293"/><stop offset="0.97" stop-color="#9ea1a3"/><stop offset="0.98" stop-color="#a7aaac"/><stop offset="1" stop-color="#aaadaf"/></linearGradient><radialGradient id="radial-gradient" cx="25.15" cy="23.28" r="2.3" gradientTransform="translate(-18.85 27.67) rotate(-90)" gradientUnits="userSpaceOnUse"><stop offset="0" stop-color="#fd9"/><stop offset="0.34" stop-color="#e1c089"/><stop offset="0.51" stop-color="#9c855f"/><stop offset="0.68" stop-color="#5a4d37"/><stop offset="0.83" stop-color="#292319"/><stop offset="0.94" stop-color="#0b0a07"/><stop offset="1"/></radialGradient><radialGradient id="radial-gradient-2" cx="25.15" cy="23.28" r="1.19" xlink:href="#radial-gradient"/></defs><g style="isolation:isolate"><g id="Layer_2" data-name="Layer 2"><g id="Layer_1-2" data-name="Layer 1"><g style="mix-blend-mode:multiply"><path d="M.05,1.08H0v.1C0,3.3,1.52,5.39,4.41,7.25h0C7.3,5.39,8.82,3.3,8.82,1.18v-.1h0C8.78.6,6.82.2,4.41.2S.05.6.05,1.08Z" style="fill:#838587"/></g><path d="M0,.93H0V1C0,3.28,1.52,5.48,4.41,7.46h0c2.9-2,4.41-4.18,4.41-6.42V.93h0c0-.52-2-.93-4.37-.93S0,.41,0,.93Z" style="fill:url(#linear-gradient)"/><path d="M.28,1.08h0v.1c0,2.12,1.43,4.21,4.17,6.07h0C7.15,5.39,8.58,3.3,8.58,1.18v-.1h0C8.54.6,6.69.2,4.41.2S.28.6.28,1.08Z" style="fill:url(#linear-gradient-2)"/><g style="mix-blend-mode:multiply"><path d="M4.5,1A1.45,1.45,0,0,1,5.84,2.56,1.44,1.44,0,0,1,4.5,4.09,1.44,1.44,0,0,1,3.16,2.56,1.45,1.45,0,0,1,4.5,1Z" style="fill:#f5f7ff;opacity:0"/><path d="M4.48,1.09A1.4,1.4,0,0,1,5.8,2.56,1.4,1.4,0,0,1,4.48,4,1.4,1.4,0,0,1,3.17,2.56,1.4,1.4,0,0,1,4.48,1.09Z" style="fill:#d7d9df;opacity:0.16666699999999998"/><path d="M4.47,1.14A1.35,1.35,0,0,1,5.75,2.55,1.35,1.35,0,0,1,4.47,4,1.35,1.35,0,0,1,3.18,2.55,1.35,1.35,0,0,1,4.47,1.14Z" style="fill:#b9bac0;opacity:0.333333"/><ellipse cx="4.45" cy="2.55" rx="1.26" ry="1.36" style="fill:#9b9ca0;opacity:0.5"/><path d="M4.43,1.25a1.27,1.27,0,0,1,1.24,1.3,1.28,1.28,0,0,1-1.24,1.3,1.28,1.28,0,0,1-1.24-1.3A1.27,1.27,0,0,1,4.43,1.25Z" style="fill:#7d7d81;opacity:0.666667"/><path d="M4.41,1.3A1.23,1.23,0,0,1,5.62,2.54a1.21,1.21,0,1,1-2.42,0A1.23,1.23,0,0,1,4.41,1.3Z" style="fill:#5f5f61;opacity:0.833333"/><path d="M4.39,1.36A1.18,1.18,0,1,1,3.21,2.54,1.18,1.18,0,0,1,4.39,1.36Z" style="fill:#1a1a1a"/></g><path d="M4.4,1.32A1.23,1.23,0,1,1,3.17,2.55,1.23,1.23,0,0,1,4.4,1.32Z" style="fill:url(#Chrome_05)"/><path d="M5.49,2.55A1.1,1.1,0,1,1,4.4,1.45,1.09,1.09,0,0,1,5.49,2.55Z" style="fill:url(#linear-gradient-3)"/><path d="M4.43.22a2.3,2.3,0,1,1-2.3,2.3A2.3,2.3,0,0,1,4.43.22Z" style="mix-blend-mode:color-dodge;fill:url(#radial-gradient)"/><path d="M4.43,1.33A1.19,1.19,0,1,1,3.24,2.52,1.19,1.19,0,0,1,4.43,1.33Z" style="mix-blend-mode:color-dodge;fill:url(#radial-gradient-2)"/><ellipse cx="4.46" cy="2.52" rx="1.34" ry="1.45" style="fill:#fff"/></g></g></g></svg>
