<svg xmlns="http://www.w3.org/2000/svg" viewBox="0 0 37.15 15.28"><defs><linearGradient id="a" x1="39.87" y1="37.57" x2="46.14" y2="37.57" gradientTransform="rotate(-90 17.085 36.515)" gradientUnits="userSpaceOnUse"><stop offset="0" stop-color="#4a4a4a"/><stop offset=".5" stop-color="#49474a"/><stop offset="1" stop-color="#524c52"/></linearGradient><linearGradient id="b" x1="18.58" y1=".34" x2="18.58" y2="12.72" gradientUnits="userSpaceOnUse"><stop offset="0" stop-color="#c20606"/><stop offset="1" stop-color="#f72f2f"/></linearGradient><linearGradient id="c" y1="7.64" x2="37.15" y2="7.64" gradientUnits="userSpaceOnUse"><stop offset="0" stop-color="#fdea6f"/><stop offset=".12" stop-color="#ebc143"/><stop offset=".29" stop-color="#ffef9c"/><stop offset=".4" stop-color="#fded9a"/><stop offset=".46" stop-color="#f8e692"/><stop offset=".51" stop-color="#f0d984"/><stop offset=".55" stop-color="#e3c870"/><stop offset=".59" stop-color="#d3b157"/><stop offset=".62" stop-color="#c09539"/><stop offset=".66" stop-color="#a97515"/><stop offset=".68" stop-color="#c2972b"/><stop offset=".75" stop-color="#fce75f"/><stop offset=".77" stop-color="#f3d150"/><stop offset=".82" stop-color="#dc9728"/><stop offset=".9" stop-color="#e6b73c"/><stop offset="1" stop-color="#f3dd55"/></linearGradient></defs><g data-name="Layer 2"><g data-name="Layer 1"><path d="M27.27 9l-1.2 4.67-.15-.07a27.64 27.64 0 0 0-7.26-.85 27.69 27.69 0 0 0-7.21.72l-.55.22L9 9l.7-.28a36 36 0 0 1 9-1.24A31.61 31.61 0 0 1 27 8.92z" fill="url(#a)"/><path d="M.35 4.27L6.52 15a31.12 31.12 0 0 1 24.11 0L36.8 4.28a43.27 43.27 0 0 0-36.45 0z" fill="url(#b)"/><g style="mix-blend-mode:multiply"><path d="M36.19 5.82C17.24-2.9 1.68 5.28 1.52 5.37L.38 4c.17-.09 17.35-8.79 36.52 0z" fill="#f9f9f9" opacity="0.04761904761904767"/><path d="M36.21 5.75C17.26-3 1.64 5.24 1.47 5.33L.38 4c.17-.09 17.35-8.79 36.52 0z" fill="#f4f2f3" opacity="0.09523809523809523"/><path d="M36.24 5.69a41.47 41.47 0 0 0-34.81-.41L.38 4c.17-.09 17.35-8.79 36.52 0z" fill="#eeeced" opacity="0.1428571428571429"/><path d="M36.26 5.62a41.59 41.59 0 0 0-34.88-.38L.38 4c.17-.09 17.35-8.79 36.52 0z" fill="#e9e6e6" opacity="0.19047619047619047"/><path d="M36.29 5.55a41.77 41.77 0 0 0-34.95-.36L.38 4c.17-.09 17.35-8.79 36.52 0z" fill="#e3e0e0" opacity="0.23809523809523814"/><path d="M36.31 5.49a41.88 41.88 0 0 0-35-.34L.38 4c.17-.09 17.35-8.79 36.52 0z" fill="#ded9da" opacity="0.2857142857142857"/><path d="M36.34 5.42a42.09 42.09 0 0 0-35.1-.32L.38 4c.17-.09 17.35-8.79 36.52 0z" fill="#d8d3d4" opacity="0.33333333333333337"/><path d="M36.37 5.36A42.25 42.25 0 0 0 1.2 5.05L.38 4c.17-.09 17.35-8.79 36.52 0z" fill="#d2cdce" opacity="0.38095238095238093"/><path d="M36.39 5.29A42.37 42.37 0 0 0 1.15 5L.38 4c.17-.09 17.35-8.79 36.52 0z" fill="#cdc6c8" opacity="0.4285714285714286"/><path d="M36.42 5.23A42.54 42.54 0 0 0 1.11 5L.38 4c.17-.09 17.35-8.79 36.52 0z" fill="#c7c0c2" opacity="0.47619047619047616"/><path d="M36.44 5.16a42.61 42.61 0 0 0-35.38-.24L.38 4c.17-.09 17.35-8.79 36.52 0z" fill="#c2babb" opacity="0.5238095238095238"/><path d="M36.47 5.1A42.82 42.82 0 0 0 1 4.87L.38 4c.17-.09 17.35-8.79 36.52 0z" fill="#bcb4b5" opacity="0.5714285714285714"/><path d="M36.49 5A42.9 42.9 0 0 0 1 4.83L.38 4c.17-.09 17.35-8.79 36.52 0z" fill="#b7adaf" opacity="0.6190476190476191"/><path d="M36.52 5A43.13 43.13 0 0 0 .93 4.78L.38 4c.17-.09 17.35-8.79 36.52 0z" fill="#b1a7a9" opacity="0.6666666666666667"/><path d="M36.54 4.9A43.19 43.19 0 0 0 .88 4.74L.38 4c.17-.09 17.35-8.79 36.52 0z" fill="#aba1a3" opacity="0.7142857142857143"/><path d="M36.57 4.83A43.37 43.37 0 0 0 .84 4.69L.38 4c.17-.09 17.35-8.79 36.52 0z" fill="#a69a9d" opacity="0.7619047619047619"/><path d="M36.59 4.77a43.47 43.47 0 0 0-35.8-.12L.38 4c.17-.09 17.35-8.79 36.52 0z" fill="#a09497" opacity="0.8095238095238095"/><path d="M36.62 4.7A43.66 43.66 0 0 0 .75 4.6L.38 4c.17-.09 17.35-8.79 36.52 0z" fill="#9b8e90" opacity="0.8571428571428572"/><path d="M36.64 4.64A43.77 43.77 0 0 0 .7 4.56L.38 4c.17-.09 17.35-8.79 36.52 0z" fill="#95888a" opacity="0.9047619047619048"/><path d="M36.67 4.57a43.9 43.9 0 0 0-36-.06L.38 4c.17-.09 17.35-8.79 36.52 0z" fill="#908184" opacity="0.9523809523809523"/><path d="M36.7 4.5a44.1 44.1 0 0 0-36.09 0L.38 4c.17-.09 17.35-8.79 36.52 0z" fill="#8a7b7e"/></g><path d="M30.74 15.28l-.21-.09a30.86 30.86 0 0 0-23.91 0l-.2.08L0 4.16l.25-.11a43.51 43.51 0 0 1 36.66 0l.24.12zm-12.17-3a30.88 30.88 0 0 1 12 2.37l5.88-10.26a43 43 0 0 0-35.74 0l5.92 10.25a31 31 0 0 1 11.94-2.36z" fill="url(#c)"/><path d="M17.32 3.37a2.2 2.2 0 0 0-2.1-.89c-1.27 0-2 .44-2 1.17 0 .46.36.77 1.11 1l.33.08.33.09.33.08h.06c.12.05.18.12.18.2s-.22.26-.55.26c-.54 0-.8-.11-1-.38l-1.44.2c.36.67 1.14 1 2.36 1s2.18-.51 2.18-1.25c0-.41-.4-.79-1-.94l-.29-.07-.28-.08-.28-.07L15 3.7c-.16-.05-.24-.11-.24-.2s.19-.24.48-.24.68.12.77.35zm3.68.34h-1.26l-.28 1.19c-.09.4-.29.6-.57.6s-.24-.06-.24-.18a.67.67 0 0 1 .05-.23l.3-1.38h-1.3l-.34 1.51a2.46 2.46 0 0 0-.07.41c0 .31.39.55.9.55a1.32 1.32 0 0 0 1.14-.51l-.11.45h1.22zm.43 0l-.57 2.41h1.25l.34-1.45a.46.46 0 0 1 .48-.38c.21 0 .32.06.32.19a1.29 1.29 0 0 1 0 .19l-.33 1.45h1.28l.38-1.65a2 2 0 0 0 0-.24c0-.36-.39-.59-1-.59a1.22 1.22 0 0 0-1.1.46l.09-.39z" fill="#fff"/><path fill="#fff" d="M21.15 3.24L20.66 3.24 20.69 3.1 21.08 3.1 21.12 2.93 20.73 2.93 20.76 2.8 21.23 2.8 21.27 2.63 20.48 2.63 20.3 3.42 21.1 3.42 21.15 3.24z"/><path fill="#fff" d="M19.89 3.1L19.82 3.42 20.14 3.42 20.32 2.63 20 2.63 19.93 2.92 19.65 2.92 19.72 2.63 19.4 2.63 19.22 3.42 19.53 3.42 19.61 3.1 19.89 3.1z"/><path fill="#fff" d="M18.98 2.81L19.22 2.81 19.26 2.63 18.47 2.63 18.42 2.81 18.66 2.81 18.52 3.42 18.84 3.42 18.98 2.81z"/><path d="M6.54 10.18c-.27 0-.41-.16-.41-.46V7.4c0-.31.14-.46.41-.46h.15c.29 0 .43.15.43.46v.73h1V7.4c0-.31.14-.46.42-.46h.16c.29 0 .43.15.43.46v2.32c0 .3-.14.46-.43.46h-.14c-.28 0-.42-.16-.42-.46V9h-1v.76c0 .3-.14.46-.43.46zm3.53-2.75a.53.53 0 0 1-.37-.12.39.39 0 0 1-.14-.31.41.41 0 0 1 .13-.32.52.52 0 0 1 .36-.12.56.56 0 0 1 .38.12.39.39 0 0 1 .14.32.42.42 0 0 1-.14.33.51.51 0 0 1-.36.1zM10 10.18c-.29 0-.43-.16-.43-.46V8.13q0-.45.42-.45h.1a.51.51 0 0 1 .32.1.49.49 0 0 1 .1.35v1.59c0 .3-.13.46-.41.46zm2.06 1.01A2.21 2.21 0 0 1 11 11a.55.55 0 0 1-.32-.52.47.47 0 0 1 .2-.39 1.19 1.19 0 0 1 .55-.19.31.31 0 0 1-.08-.22.36.36 0 0 1 .21-.32 1 1 0 0 1-.53-.29.76.76 0 0 1-.19-.51.81.81 0 0 1 .34-.66 1.53 1.53 0 0 1 1.31-.19l.08-.17a.48.48 0 0 1 .43-.3.41.41 0 0 1 .26.09.64.64 0 0 1 .16.19v.11l-.36.37A.79.79 0 0 1 13 9.21a1.43 1.43 0 0 1-.85.23.07.07 0 0 0 0 .06h.38l.2.05c.46.13.69.37.69.73a.66.66 0 0 1-.36.58 2 2 0 0 1-1 .33zm.47-.76c0-.06 0-.1-.11-.13l-.34-.08H12c-.27 0-.41.1-.41.22s.16.21.46.21.48-.08.48-.22zm-.7-1.6a.37.37 0 0 0 .25.09.35.35 0 0 0 .25-.09.37.37 0 0 0 .09-.26.31.31 0 0 0-.34-.34.31.31 0 0 0-.34.34.37.37 0 0 0 .09.26zm2.76-1.43v.7a.82.82 0 0 1 .77-.44.76.76 0 0 1 .65.28 1.18 1.18 0 0 1 .21.72v1.06c0 .3-.14.46-.42.46h-.09c-.29 0-.43-.16-.43-.46v-.91a.39.39 0 0 0-.09-.28.26.26 0 0 0-.22-.1.36.36 0 0 0-.28.1.4.4 0 0 0-.1.3v.89c0 .3-.14.46-.42.46h-.1c-.28 0-.43-.16-.43-.46V6.79h.32a.56.56 0 0 1 .41.16.74.74 0 0 1 .22.45zm5.17 2.78a.63.63 0 0 1-.35-.1 1.19 1.19 0 0 1-.31-.32l-.45-.6h-.18v.56a.4.4 0 0 1-.44.46h-.13a.35.35 0 0 1-.31-.15.74.74 0 0 1-.11-.43V7.51a.58.58 0 0 1 .13-.41A.5.5 0 0 1 18 7h1c.89 0 1.33.35 1.33 1a1 1 0 0 1-.17.59.87.87 0 0 1-.52.34l.72.9v.1a.72.72 0 0 1-.2.16.71.71 0 0 1-.4.09zm-1.31-2.47v.75h.42c.29 0 .44-.13.44-.37s-.15-.38-.45-.38zm4.42 2.16a1.52 1.52 0 0 1-1.94 0 1.24 1.24 0 0 1-.36-.94 1.19 1.19 0 0 1 .37-.93 1.34 1.34 0 0 1 1-.35 1.32 1.32 0 0 1 1 .35 1.23 1.23 0 0 1 .36.93 1.2 1.2 0 0 1-.43.94zm-1-.37a.53.53 0 0 0 .38-.16.57.57 0 0 0 .15-.4.58.58 0 0 0-.15-.41.49.49 0 0 0-.38-.16.5.5 0 0 0-.39.16.55.55 0 0 0-.15.4.58.58 0 0 0 .15.41.53.53 0 0 0 .43.16zm2.13.68a.4.4 0 0 1-.44-.46V6.79h.37a.56.56 0 0 1 .41.16.78.78 0 0 1 .17.56v2.21c0 .3-.14.46-.42.46zm1.43 0a.4.4 0 0 1-.43-.46V6.79h.37a.56.56 0 0 1 .41.16.78.78 0 0 1 .17.56v2.21c0 .3-.14.46-.41.46zm2.21.04a1.37 1.37 0 0 1-1-.34 1.16 1.16 0 0 1-.36-.88 1.26 1.26 0 0 1 1.3-1.3 1.26 1.26 0 0 1 .92.3 1.15 1.15 0 0 1 .35.87v.06c0 .17-.07.25-.19.25h-1.54c.06.26.25.38.56.38a.63.63 0 0 0 .6-.31h.11a.45.45 0 0 1 .21.12.31.31 0 0 1 .11.26.46.46 0 0 1-.28.41 1.58 1.58 0 0 1-.79.18zm-.07-2a.45.45 0 0 0-.31.12.49.49 0 0 0-.16.3h.9a.38.38 0 0 0-.12-.3.41.41 0 0 0-.31-.07zm1.96-.54a.51.51 0 0 1 .54.44.59.59 0 0 1 .59-.46.52.52 0 0 1 .38.13.49.49 0 0 1 .14.37.6.6 0 0 1 0 .2.53.53 0 0 1-.08.15.38.38 0 0 1-.1.09l-.07.05a.49.49 0 0 0-.34-.13c-.28 0-.42.2-.42.61v.58c0 .3-.14.46-.42.46h-.1c-.28 0-.43-.16-.43-.46V7.79h.05a.46.46 0 0 1 .14 0z" fill="#fff"/></g></g></svg>